<svg width="48" height="48" version="1.1" viewBox="0 0 12.7 12.7" xmlns="http://www.w3.org/2000/svg"><g stroke="#000"><path d="m6.349.80594c-.49352 1.21-.79119 2.0015-1.3407 3.1755.33689.35711.75042.77298 1.422 1.2427-.72199-.2971-1.2145-.59537-1.5825-.9049-.70322 1.4674-1.805 3.5576-4.0408 7.5749 1.7573-1.0145 3.1195-1.6399 4.389-1.8786-.054512-.23446-.085506-.48807-.083401-.75269l.00202-.056293c.027883-1.1258.61354-1.9916 1.3073-1.9328.69377.058781 1.233 1.0197 1.2051 2.1455-.00525.21184-.029138.41564-.070891.60465 1.2557.24564 2.6033.86949 4.3368 1.8703-.34181-.6293-.6469-1.1966-.93826-1.7368-.45893-.3557-.93762-.81865-1.914-1.3198.67114.17439 1.1517.37559 1.5262.60048-2.9623-5.5152-3.2022-6.2481-4.218-8.632z" fill="#1793d1" fill-rule="evenodd" stroke-width=".21167"/><g transform="translate(.38024 -.77383)" fill="#fff" stroke-width=".21167"><rect x="3.6281" y="4.6277" width="1.6845" height="6.812" rx="0" ry="0" style="paint-order:markers fill stroke"/><rect x="6.6269" y="4.6277" width="1.6845" height="6.812" rx="0" ry="0" style="paint-order:markers fill stroke"/></g></g></svg>
